<mxfile host="app.diagrams.net" modified="2021-11-20T05:57:05.442Z" agent="5.0 (Windows NT 10.0; Win64; x64) AppleWebKit/537.36 (KHTML, like Gecko) Chrome/95.0.4638.69 Safari/537.36 Edg/95.0.1020.53" etag="tgvhZnptKnN9N3kI0tVf" version="15.8.3" type="github">
  <diagram id="6a731a19-8d31-9384-78a2-239565b7b9f0" name="Page-1">
    <mxGraphModel dx="1038" dy="571" grid="0" gridSize="10" guides="1" tooltips="1" connect="1" arrows="1" fold="1" page="1" pageScale="1" pageWidth="1169" pageHeight="827" background="none" math="0" shadow="0">
      <root>
        <mxCell id="0" />
        <mxCell id="1" parent="0" />
        <mxCell id="uer1tcdrFeBj82MqbWWy-71" value="" style="rounded=0;whiteSpace=wrap;html=1;" vertex="1" parent="1">
          <mxGeometry x="418.5" y="370" width="431.5" height="170" as="geometry" />
        </mxCell>
        <mxCell id="uer1tcdrFeBj82MqbWWy-68" value="" style="rounded=0;whiteSpace=wrap;html=1;" vertex="1" parent="1">
          <mxGeometry x="418.5" y="190" width="431.5" height="170" as="geometry" />
        </mxCell>
        <mxCell id="2" value="主goroutine" style="shape=mxgraph.flowchart.terminator;strokeWidth=2;gradientColor=none;gradientDirection=north;fontStyle=0;html=1;" parent="1" vertex="1">
          <mxGeometry x="260" y="60" width="120" height="30" as="geometry" />
        </mxCell>
        <mxCell id="3" value="获取数据" style="shape=mxgraph.flowchart.data;strokeWidth=2;gradientColor=none;gradientDirection=north;fontStyle=0;html=1;" parent="1" vertex="1">
          <mxGeometry x="240.5" y="130" width="159" height="80" as="geometry" />
        </mxCell>
        <mxCell id="7" style="fontStyle=1;strokeColor=#003366;strokeWidth=1;html=1;" parent="1" source="2" target="3" edge="1">
          <mxGeometry relative="1" as="geometry" />
        </mxCell>
        <mxCell id="8" style="fontStyle=1;strokeColor=#003366;strokeWidth=1;html=1;" parent="1" source="3" edge="1">
          <mxGeometry relative="1" as="geometry">
            <mxPoint x="320" y="250" as="targetPoint" />
          </mxGeometry>
        </mxCell>
        <mxCell id="40" value="end" style="shape=mxgraph.flowchart.terminator;strokeWidth=2;gradientColor=none;gradientDirection=north;fontStyle=0;html=1;" parent="1" vertex="1">
          <mxGeometry x="260" y="660" width="120" height="30" as="geometry" />
        </mxCell>
        <mxCell id="43" value="" style="edgeStyle=elbowEdgeStyle;elbow=vertical;exitX=0.5;exitY=1;exitPerimeter=0;entryX=0.5;entryY=0;entryPerimeter=0;fontStyle=1;strokeColor=#003366;strokeWidth=1;html=1;" parent="1" target="40" edge="1">
          <mxGeometry y="-1240" width="100" height="100" as="geometry">
            <mxPoint x="320" y="570" as="sourcePoint" />
            <mxPoint x="100" y="-1240" as="targetPoint" />
            <Array as="points">
              <mxPoint x="320" y="640" />
            </Array>
          </mxGeometry>
        </mxCell>
        <mxCell id="45" value="" style="edgeStyle=elbowEdgeStyle;elbow=horizontal;exitX=1;exitY=0.5;exitPerimeter=0;entryX=0.905;entryY=0.5;entryPerimeter=0;fontStyle=1;strokeColor=#003366;strokeWidth=1;html=1;" parent="1" target="34" edge="1">
          <mxGeometry width="100" height="100" as="geometry">
            <mxPoint x="380.5" y="1119.25" as="sourcePoint" />
            <mxPoint x="100" as="targetPoint" />
            <Array as="points">
              <mxPoint x="950" y="1320" />
            </Array>
          </mxGeometry>
        </mxCell>
        <mxCell id="uer1tcdrFeBj82MqbWWy-59" value="" style="edgeStyle=orthogonalEdgeStyle;rounded=0;orthogonalLoop=1;jettySize=auto;html=1;" edge="1" parent="1" source="uer1tcdrFeBj82MqbWWy-56" target="uer1tcdrFeBj82MqbWWy-57">
          <mxGeometry relative="1" as="geometry" />
        </mxCell>
        <mxCell id="uer1tcdrFeBj82MqbWWy-62" value="" style="edgeStyle=orthogonalEdgeStyle;rounded=0;orthogonalLoop=1;jettySize=auto;html=1;" edge="1" parent="1" source="uer1tcdrFeBj82MqbWWy-56" target="uer1tcdrFeBj82MqbWWy-61">
          <mxGeometry relative="1" as="geometry" />
        </mxCell>
        <mxCell id="uer1tcdrFeBj82MqbWWy-56" value="搜索" style="shape=mxgraph.flowchart.data;strokeWidth=2;gradientColor=none;gradientDirection=north;fontStyle=0;html=1;" vertex="1" parent="1">
          <mxGeometry x="240.5" y="250" width="159" height="80" as="geometry" />
        </mxCell>
        <mxCell id="uer1tcdrFeBj82MqbWWy-60" value="" style="edgeStyle=orthogonalEdgeStyle;rounded=0;orthogonalLoop=1;jettySize=auto;html=1;" edge="1" parent="1" source="uer1tcdrFeBj82MqbWWy-57" target="uer1tcdrFeBj82MqbWWy-58">
          <mxGeometry relative="1" as="geometry" />
        </mxCell>
        <mxCell id="uer1tcdrFeBj82MqbWWy-66" value="" style="edgeStyle=orthogonalEdgeStyle;rounded=0;orthogonalLoop=1;jettySize=auto;html=1;" edge="1" parent="1" source="uer1tcdrFeBj82MqbWWy-57" target="uer1tcdrFeBj82MqbWWy-65">
          <mxGeometry relative="1" as="geometry" />
        </mxCell>
        <mxCell id="uer1tcdrFeBj82MqbWWy-57" value="跟踪结果" style="shape=mxgraph.flowchart.data;strokeWidth=2;gradientColor=none;gradientDirection=north;fontStyle=0;html=1;" vertex="1" parent="1">
          <mxGeometry x="240.5" y="400" width="159" height="80" as="geometry" />
        </mxCell>
        <mxCell id="uer1tcdrFeBj82MqbWWy-58" value="显示" style="shape=mxgraph.flowchart.data;strokeWidth=2;gradientColor=none;gradientDirection=north;fontStyle=0;html=1;" vertex="1" parent="1">
          <mxGeometry x="240.5" y="540" width="159" height="80" as="geometry" />
        </mxCell>
        <mxCell id="uer1tcdrFeBj82MqbWWy-61" value="接口匹配" style="shape=mxgraph.flowchart.data;strokeWidth=2;gradientColor=none;gradientDirection=north;fontStyle=0;html=1;" vertex="1" parent="1">
          <mxGeometry x="479.5" y="250" width="159" height="80" as="geometry" />
        </mxCell>
        <mxCell id="uer1tcdrFeBj82MqbWWy-63" value="" style="endArrow=none;dashed=1;html=1;dashPattern=1 3;strokeWidth=2;rounded=0;" edge="1" parent="1">
          <mxGeometry width="50" height="50" relative="1" as="geometry">
            <mxPoint x="670" y="300" as="sourcePoint" />
            <mxPoint x="770" y="300" as="targetPoint" />
          </mxGeometry>
        </mxCell>
        <mxCell id="uer1tcdrFeBj82MqbWWy-64" value="" style="endArrow=none;dashed=1;html=1;dashPattern=1 3;strokeWidth=2;rounded=0;" edge="1" parent="1">
          <mxGeometry width="50" height="50" relative="1" as="geometry">
            <mxPoint x="690" y="439.5" as="sourcePoint" />
            <mxPoint x="790" y="439.5" as="targetPoint" />
          </mxGeometry>
        </mxCell>
        <mxCell id="uer1tcdrFeBj82MqbWWy-65" value="工作停止" style="shape=mxgraph.flowchart.data;strokeWidth=2;gradientColor=none;gradientDirection=north;fontStyle=0;html=1;" vertex="1" parent="1">
          <mxGeometry x="479.5" y="400" width="159" height="80" as="geometry" />
        </mxCell>
        <mxCell id="uer1tcdrFeBj82MqbWWy-69" value="搜索子goroutine" style="text;html=1;align=center;verticalAlign=middle;resizable=0;points=[];autosize=1;strokeColor=none;fillColor=none;" vertex="1" parent="1">
          <mxGeometry x="560" y="200" width="100" height="20" as="geometry" />
        </mxCell>
        <mxCell id="uer1tcdrFeBj82MqbWWy-70" value="跟踪子goroutine" style="text;html=1;align=center;verticalAlign=middle;resizable=0;points=[];autosize=1;strokeColor=none;fillColor=none;" vertex="1" parent="1">
          <mxGeometry x="560" y="500" width="100" height="20" as="geometry" />
        </mxCell>
      </root>
    </mxGraphModel>
  </diagram>
</mxfile>
